<svg width="58" height="16" viewBox="0 0 58 16" fill="none" xmlns="http://www.w3.org/2000/svg">
<path d="M8 0L10.8684 4.052L15.6085 5.52786L12.6412 9.508L12.7023 14.4721L8 12.88L3.29772 14.4721L3.35884 9.508L0.391548 5.52786L5.13161 4.052L8 0Z" fill="#EF8F00"/>
<path d="M29 0L31.8684 4.052L36.6085 5.52786L33.6412 9.508L33.7023 14.4721L29 12.88L24.2977 14.4721L24.3588 9.508L21.3915 5.52786L26.1316 4.052L29 0Z" fill="#EF8F00"/>
<path d="M50 0L52.8684 4.052L57.6085 5.52786L54.6412 9.508L54.7023 14.4721L50 12.88L45.2977 14.4721L45.3588 9.508L42.3915 5.52786L47.1316 4.052L50 0Z" fill="#EF8F00"/>
</svg>
