<svg width="49" height="33" viewBox="0 0 49 33" fill="none" xmlns="http://www.w3.org/2000/svg">
<path d="M33.8968 15.2194C35.5761 14.2002 37.5413 13.7546 39.496 13.95C41.4507 14.1454 43.2889 14.9712 44.7332 16.3027C46.1776 17.6343 47.1497 19.3994 47.5031 21.3318C47.8564 23.2642 47.5718 25.2591 46.6921 27.0156C45.8125 28.7721 44.3855 30.1949 42.6264 31.0694C40.8674 31.9439 38.8716 32.2226 36.9403 31.8636C35.0089 31.5046 33.2467 30.5273 31.9194 29.079C30.5921 27.6308 29.7717 25.7902 29.5821 23.8349C28.9052 19.7482 28.7629 14.8611 30.5403 10.5065C32.4468 5.84181 36.4306 2.10515 43.3765 0.556862C43.9547 0.446172 44.5532 0.565019 45.0452 0.888206C45.5372 1.21139 45.8839 1.7135 46.0119 2.28806C46.1399 2.86262 46.0391 3.46444 45.7308 3.96591C45.4226 4.46739 44.9311 4.82907 44.3607 4.97427C38.7418 6.22693 36.0333 9.04082 34.7318 12.219C34.3459 13.1676 34.071 14.1747 33.8968 15.2194V15.2194Z" fill="#282C30"/>
<path d="M5.28445 15.5617C6.96378 14.5424 8.92902 14.0969 10.8837 14.2923C12.8384 14.4877 14.6766 15.3135 16.1209 16.645C17.5652 17.9766 18.5374 19.7416 18.8908 21.6741C19.2441 23.6065 18.9595 25.6014 18.0798 27.3579C17.2002 29.1144 15.7732 30.5372 14.0141 31.4117C12.2551 32.2862 10.2593 32.5649 8.32796 32.2059C6.39659 31.8469 4.63436 30.8695 3.30707 29.4213C1.97978 27.9731 1.15943 26.1325 0.969758 24.1772C0.2929 20.0905 0.150608 15.2034 1.92795 10.8488C3.83448 6.1841 7.81829 2.44744 14.7642 0.899147C15.3424 0.788457 15.9409 0.907305 16.4329 1.23049C16.9249 1.55368 17.2716 2.05579 17.3996 2.63034C17.5276 3.2049 17.4268 3.80673 17.1185 4.3082C16.8103 4.80967 16.3188 5.17135 15.7484 5.31656C10.1295 6.56922 7.42098 9.3831 6.11951 12.5613C5.73356 13.5099 5.45872 14.517 5.28445 15.5617V15.5617Z" fill="#282C30"/>
</svg>
