<svg width="25" height="17" viewBox="0 0 25 17" fill="none" xmlns="http://www.w3.org/2000/svg">
<path d="M13.5 8.5H21.375M5.625 8.5C4.72989 8.5 3.87145 8.14442 3.23851 7.51149C2.60558 6.87855 2.25 6.02011 2.25 5.125C2.25 4.22989 2.60558 3.37145 3.23851 2.73851C3.87145 2.10558 4.72989 1.75 5.625 1.75C6.52011 1.75 7.37855 2.10558 8.01149 2.73851C8.64442 3.37145 9 4.22989 9 5.125C9 6.02011 8.64442 6.87855 8.01149 7.51149C7.37855 8.14442 6.52011 8.5 5.625 8.5ZM10.125 15.25V13C10.125 10.4688 8.11463 8.5 5.5845 8.5H5.64525C3.114 8.5 1.125 10.4688 1.125 13V15.25H10.125ZM13.5 2.875H27H13.5ZM13.5 14.125H24.75H13.5Z" stroke="#0CCE84" stroke-width="2"/>
</svg>
