<svg version="1.2" xmlns="http://www.w3.org/2000/svg" viewBox="0 0 131 155" width="131" height="155">
	<title>product__daily-1-svg</title>
	<defs>
		<linearGradient id="g1" x1="3.5" y1="46" x2="129.5" y2="184" gradientUnits="userSpaceOnUse">
			<stop offset="0" stop-color="#6aea5c"/>
			<stop offset=".4" stop-color="#fd7566"/>
			<stop offset="1" stop-color="#ef8f00"/>
		</linearGradient>
		<linearGradient id="g2" x1="127.8" y1="109.1" x2=".2" y2="-27.5" gradientUnits="userSpaceOnUse">
			<stop offset="0" stop-color="#6aea5c"/>
			<stop offset=".4" stop-color="#fd7566"/>
			<stop offset="1" stop-color="#ef8f00"/>
		</linearGradient>
	</defs>
	<style>
		.s0 { fill: url(#g1) } 
		.s1 { fill: url(#g2) } 
		.s2 { fill: #191b1d } 
		.s3 { fill: #6aea5c } 
	</style>
	<path id="Layer" class="s0" d="m126.6 128.9c-6 7.2-13.5 13.1-21.8 17.4-8.4 4.4-17.5 7-26.9 7.9-9.3 0.8-18.8-0.3-27.8-3.1-8.9-2.9-17.3-7.4-24.5-13.5-7.2-6-13.1-13.5-17.5-21.8-4.3-8.4-6.9-17.5-7.8-26.9-0.8-9.3 0.3-18.8 3.1-27.8 2.9-8.9 7.4-17.3 13.5-24.5l54.8 46.1z"/>
	<path id="Layer" class="s1" d="m3.8 27.6c5.9-7.2 13.3-13.3 21.6-17.7 8.3-4.4 17.4-7.2 26.7-8.1 9.4-0.9 18.9 0 27.9 2.8 9 2.7 17.4 7.2 24.6 13.2 7.3 5.9 13.3 13.3 17.8 21.6 4.4 8.3 7.1 17.4 8.1 26.7 0.9 9.4-0.1 18.9-2.8 27.9-2.7 9-7.2 17.4-13.2 24.6l-55.4-45.5z"/>
	<path id="Layer" class="s2" d="m64 94c-9.4 0-17-7.6-17-17 0-9.4 7.6-17 17-17 9.4 0 17 7.6 17 17 0 9.4-7.6 17-17 17z"/>
	<path id="Layer" class="s3" d="m63.5 69l2.9 3.5 4.2 1.7-2.4 3.8-0.3 4.6-4.4-1.1-4.4 1.1-0.3-4.6-2.4-3.8 4.2-1.7z"/>
</svg>